<?xml version="1.0" encoding="utf-8"?>
<!-- Generator: Adobe Illustrator 17.0.0, SVG Export Plug-In . SVG Version: 6.00 Build 0)  -->
<svg version="1.2" baseProfile="tiny" id="Layer_1" xmlns="http://www.w3.org/2000/svg" xmlns:xlink="http://www.w3.org/1999/xlink"
	 x="0px" y="0px" width="398.676px" height="398.676px" viewBox="0 0 398.676 398.676" xml:space="preserve">
<g>
	<polygon fill-rule="evenodd" fill="#FFFFFF" points="0,0 398.676,0 398.676,398.676 0,398.676 0,0 	"/>
	<path fill="#231F20" d="M198.998,154.664c5.094,0,7.132,1.018,7.132,1.018l3.06-12.908c0,0,2.376,9.853,3.397,18.683
		c1.02,8.833,16.646,3.06,29.895,0.339c13.25-2.716,15.963-24.118,15.963-24.118h122.642c0,0-74.061,22.421-55.375,71.679
		c0,0-109.392-16.646-126.373,51.636h-0.005c-16.983-68.282-126.371-51.636-126.371-51.636
		c18.681-49.258-55.374-71.679-55.374-71.679h122.637c0,0,2.718,21.402,15.963,24.118c13.25,2.72,28.88,8.494,29.896-0.339
		c1.02-8.83,3.401-18.683,3.401-18.683l3.055,12.908c0,0,2.04-1.018,7.135-1.018H198.998L198.998,154.664z"/>
</g>
</svg>
